<svg width="470" height="470" viewBox="0 0 470 470" fill="none" xmlns="http://www.w3.org/2000/svg">
<g clip-path="url(#clip0)">
<rect x="155" y="176.734" width="278" height="36.3092" transform="rotate(-10.3057 155 176.734)" fill="black"/>
<path d="M461.708 4.98401C456.916 0.920007 450.52 -0.726993 444.312 0.295007L145.646 52.836C135.438 54.65 128 63.507 128 73.866V319.942C128 331.718 118.437 341.284 106.667 341.284H85.333C38.271 341.283 0 370.003 0 405.308C0 440.613 38.271 469.333 85.333 469.333C132.395 469.333 170.666 440.613 170.666 405.308V177.13L426.666 131.952V277.258C426.666 289.033 417.103 298.6 405.333 298.6H384C336.937 298.6 298.667 327.32 298.667 362.625C298.667 397.93 336.938 426.65 384 426.65C431.062 426.65 469.333 397.93 469.333 362.625V21.324C469.333 15.009 466.542 9.02801 461.708 4.98401Z" fill="black"/>
<path d="M264.3 150.106L251.077 152.315L243.168 104.971C243.014 104.046 242.685 103.214 242.181 102.474C241.708 101.73 241.114 101.116 240.4 100.633C239.712 100.115 238.938 99.7526 238.08 99.5474C237.222 99.3422 236.331 99.3169 235.406 99.4713C234.481 99.6258 233.647 99.9395 232.902 100.412C232.157 100.885 231.528 101.482 231.015 102.201C230.527 102.884 230.18 103.655 229.975 104.513C229.77 105.371 229.745 106.263 229.899 107.187L237.808 154.531L224.538 156.748L216.63 109.404C216.475 108.479 216.162 107.644 215.689 106.9C215.216 106.155 214.622 105.541 213.908 105.059C213.219 104.54 212.446 104.178 211.588 103.973C210.73 103.768 209.838 103.742 208.914 103.897C207.989 104.051 207.154 104.365 206.41 104.838C205.665 105.311 205.036 105.907 204.522 106.626C204.034 107.31 203.688 108.081 203.483 108.939C203.278 109.797 203.252 110.688 203.407 111.613L211.315 158.957L198.046 161.173L190.137 113.829C189.679 111.086 189.758 108.427 190.373 105.853C191.015 103.243 192.08 100.895 193.569 98.8087C195.084 96.6863 196.958 94.9158 199.192 93.497C201.452 92.0423 203.954 91.0858 206.697 90.6275C209.163 90.2156 211.611 90.2661 214.041 90.7789C216.466 91.261 218.727 92.1823 220.824 93.543C222.364 91.5747 224.187 89.9712 226.293 88.7323C228.425 87.4574 230.724 86.614 233.189 86.2021C235.933 85.7438 238.594 85.8379 241.173 86.4843C243.778 87.0947 246.126 88.1598 248.218 89.6797C250.335 91.1637 252.106 93.0382 253.53 95.3033C254.979 97.5324 255.933 100.019 256.391 102.762L264.3 150.106ZM309.708 136.58C308.845 137.675 307.897 138.736 306.865 139.764C305.859 140.756 304.775 141.665 303.614 142.493C302.448 143.29 301.216 143.971 299.916 144.537C298.652 145.128 297.327 145.539 295.94 145.771C292.889 146.281 289.932 146.22 287.07 145.589C284.208 144.958 281.595 143.827 279.232 142.194C276.893 140.525 274.902 138.371 273.257 135.73C271.638 133.054 270.532 129.944 269.94 126.399L265.368 99.0287L277.943 96.928L282.516 124.299C282.794 125.963 283.29 127.417 284.004 128.66C284.745 129.867 285.621 130.845 286.633 131.595C287.646 132.345 288.761 132.855 289.978 133.127C291.227 133.394 292.514 133.417 293.839 133.195C295.134 132.979 296.302 132.483 297.345 131.707C298.413 130.895 299.297 129.923 299.995 128.793C300.693 127.662 301.186 126.439 301.473 125.124C301.755 123.778 301.786 122.442 301.564 121.117L296.992 93.746L309.614 91.6375L317.886 141.155L314.834 141.664L309.708 136.58ZM366.2 133.084L324.913 139.981L339.609 99.6486L318.758 103.132L316.657 90.5561L357.944 83.6592L343.248 123.991L364.1 120.508L366.2 133.084ZM390.161 116.63C390.68 116.702 391.191 116.727 391.694 116.706C392.193 116.655 392.688 116.588 393.181 116.505C394.414 116.299 395.573 115.932 396.657 115.402C397.74 114.873 398.724 114.217 399.607 113.436C400.516 112.619 401.281 111.699 401.903 110.676C402.55 109.618 403.027 108.492 403.335 107.3L414.134 115.049C413.241 116.909 412.134 118.63 410.815 120.213C409.526 121.791 408.065 123.191 406.431 124.415C404.829 125.633 403.08 126.638 401.185 127.43C399.325 128.247 397.363 128.829 395.298 129.174C391.815 129.755 388.424 129.657 385.125 128.877C381.858 128.092 378.875 126.737 376.177 124.811C373.51 122.881 371.248 120.439 369.393 117.485C367.532 114.501 366.282 111.098 365.644 107.276C364.99 103.361 365.055 99.6752 365.84 96.2174C366.625 92.7596 367.967 89.6997 369.867 87.0378C371.798 84.3707 374.183 82.1505 377.024 80.377C379.895 78.5984 383.072 77.4182 386.555 76.8363C388.62 76.4914 390.68 76.4007 392.735 76.5643C394.79 76.728 396.773 77.1254 398.685 77.7566C400.627 78.3826 402.482 79.2451 404.25 80.3438C406.012 81.4118 407.618 82.6801 409.067 84.1489L390.161 116.63ZM392.285 89.5186C391.664 89.4007 391.055 89.3598 390.459 89.396C389.894 89.427 389.303 89.494 388.687 89.597C386.96 89.8854 385.381 90.4819 383.948 91.3866C382.541 92.2554 381.364 93.3706 380.42 94.7324C379.506 96.089 378.864 97.6536 378.495 99.4262C378.12 101.168 378.106 103.071 378.451 105.137C378.528 105.599 378.631 106.12 378.76 106.701C378.919 107.276 379.096 107.864 379.292 108.465C379.513 109.03 379.747 109.577 379.994 110.106C380.241 110.636 380.523 111.095 380.842 111.486L392.285 89.5186Z" fill="white"/>
</g>
<defs>
<clipPath id="clip0">
<rect width="469.333" height="469.333" fill="white"/>
</clipPath>
</defs>
</svg>
